<svg width="262" height="71" viewBox="0 0 262 71" fill="none" xmlns="http://www.w3.org/2000/svg">
<path d="M61.1701 36.3558L30.8736 0L0 35.4902L35.7787 70.4033L45.4448 58.5733L21.2076 35.7787L61.1701 36.3558ZM30.6399 17.3123L39.2816 26.8889L22.4656 27.1226L30.6399 17.3123Z" fill="white"/>
<path d="M90.1127 43.2776H77.1571V26.1997H90.1127V30.5012H82.3291V32.4983H89.9335V36.7998H82.3291V38.9761H90.1127V43.2776ZM102.626 43.2776H91.8718V39.8979L96.2245 34.9051H91.8718V30.9108H102.523V34.1369L98.068 39.2834H102.626V43.2776ZM103.914 37.0814C103.914 33.4968 106.654 30.6036 110.648 30.6036C114.284 30.6036 117.075 33.2152 117.075 37.5679V38.5152H108.676C108.933 39.309 109.829 40.0771 111.391 40.0771C112.44 40.0771 113.567 39.693 114.181 39.2065L116.076 42.0486C114.847 43.0984 112.645 43.5848 110.802 43.5848C106.935 43.5848 103.914 41.1524 103.914 37.0814ZM110.648 34.1113C109.24 34.1113 108.779 35.0331 108.625 35.5964H112.696C112.568 35.0587 112.133 34.1113 110.648 34.1113ZM117.816 37.0814C117.816 33.4968 120.556 30.6036 124.55 30.6036C128.186 30.6036 130.977 33.2152 130.977 37.5679V38.5152H122.579C122.835 39.309 123.731 40.0771 125.293 40.0771C126.342 40.0771 127.469 39.693 128.084 39.2065L129.978 42.0486C128.749 43.0984 126.547 43.5848 124.704 43.5848C120.838 43.5848 117.816 41.1524 117.816 37.0814ZM124.55 34.1113C123.142 34.1113 122.681 35.0331 122.527 35.5964H126.599C126.471 35.0587 126.035 34.1113 124.55 34.1113ZM152.944 43.2776H147.772V32.4983L143.957 43.2776H141.653L137.838 32.4983V43.2776H132.666V26.1997H139.809L142.805 34.9051L145.801 26.1997H152.944V43.2776ZM154.772 37.0814C154.772 33.4968 157.512 30.6036 161.506 30.6036C165.142 30.6036 167.933 33.2152 167.933 37.5679V38.5152H159.535C159.791 39.309 160.687 40.0771 162.249 40.0771C163.298 40.0771 164.425 39.693 165.039 39.2065L166.934 42.0486C165.705 43.0984 163.503 43.5848 161.66 43.5848C157.793 43.5848 154.772 41.1524 154.772 37.0814ZM161.506 34.1113C160.098 34.1113 159.637 35.0331 159.483 35.5964H163.554C163.426 35.0587 162.991 34.1113 161.506 34.1113ZM182.219 43.2776H177.61V41.9718C176.56 43.1496 175.383 43.5848 174.128 43.5848C171.132 43.5848 168.674 41.3317 168.674 37.0814C168.674 32.9848 171.081 30.6036 174.128 30.6036C175.383 30.6036 176.637 31.0388 177.61 32.2166V26.1997H182.219V43.2776ZM177.61 38.6689V35.4939C177.175 34.9563 176.304 34.6746 175.69 34.6746C174.435 34.6746 173.386 35.5452 173.386 37.0814C173.386 38.6176 174.435 39.5138 175.69 39.5138C176.304 39.5138 177.175 39.2065 177.61 38.6689ZM187.076 29.6306C185.642 29.6306 184.49 28.4784 184.49 27.0446C184.49 25.6108 185.642 24.4586 187.076 24.4586C188.51 24.4586 189.662 25.6108 189.662 27.0446C189.662 28.4784 188.51 29.6306 187.076 29.6306ZM189.381 43.2776H184.772V30.9108H189.381V43.2776ZM203.7 43.2776H199.091V42.0998C198.4 42.9703 196.89 43.5848 195.353 43.5848C193.51 43.5848 191.103 42.3302 191.103 39.5138C191.103 36.4413 193.51 35.6988 195.353 35.6988C196.966 35.6988 198.426 36.2109 199.091 37.0558V35.6476C199.091 34.777 198.298 34.1113 196.787 34.1113C195.635 34.1113 194.329 34.5722 193.356 35.3147L191.794 32.4727C193.459 31.1413 195.763 30.6036 197.632 30.6036C200.705 30.6036 203.7 31.6789 203.7 35.8012V43.2776ZM199.091 39.9235V39.2321C198.784 38.7969 197.99 38.5664 197.274 38.5664C196.505 38.5664 195.661 38.8225 195.661 39.5906C195.661 40.3587 196.505 40.5892 197.274 40.5892C197.99 40.5892 198.784 40.3587 199.091 39.9235ZM224.529 43.2776H212.879V26.1997H218.051V38.7713H224.529V43.2776ZM238.256 43.2776H226.606V26.1997H231.778V38.7713H238.256V43.2776ZM248.18 43.5848C242.957 43.5848 238.911 40.0003 238.911 34.7514C238.911 29.477 242.957 25.918 248.18 25.918C252.789 25.918 255.042 28.5296 256.066 30.8852L251.611 32.9591C251.176 31.6277 249.844 30.4756 248.18 30.4756C245.824 30.4756 244.16 32.3703 244.16 34.7514C244.16 37.1326 245.824 39.0273 248.18 39.0273C249.844 39.0273 251.176 37.8751 251.611 36.5437L256.066 38.592C255.067 40.8708 252.789 43.5848 248.18 43.5848Z" fill="white"/>
</svg>
